#Comment line ignore any data following # character 
#Hierarchical Translation and Rotation (.htr) file 
[Header]	
#Header keywords are followed by a single value 
FileType HTR		#Single word string
DataType HTRS		#Translation followed by rotation and scale data
FileVersion 1		#integer
NumSegments 64		#integer
NumFrames 3		#integer
DataFrameRate 30		#integer, data frame rate in this file
EulerRotationOrder ZYX
CalibrationUnits mm
RotationUnits Degrees
GlobalAxisofGravity Y
BoneLengthAxis Y
ScaleFactor 1.00
[SegmentNames&Hierarchy]
#CHILD	PARENT
Pinger_Root GLOBAL
Pelvis Pinger_Root
L_Hip Pelvis
R_Hip Pelvis
Rear_Leg01 Pelvis
Spine1 Pelvis
L_Leg01 L_Hip
L_Leg02 L_Leg01
L_Leg03 L_Leg02
L_Foot L_Leg03
L_Toe1_01 L_Foot
L_Toe2_01 L_Foot
L_Toe3_01 L_Foot
planeAlignerLeft L_Foot
L_Toe1_02 L_Toe1_01
L_Toe1_03 L_Toe1_02
L_Toe2_02 L_Toe2_01
L_Toe2_03 L_Toe2_02
L_Toe3_02 L_Toe3_01
L_Toe3_03 L_Toe3_02
planeLockWeightLeft planeAlignerLeft
R_Leg01 R_Hip
R_Leg02 R_Leg01
R_Leg03 R_Leg02
R_Foot R_Leg03
planeAlignerRight R_Foot
R_Toe1_01 R_Foot
R_Toe2_01 R_Foot
R_Toe3_01 R_Foot
planeLockWeightRight planeAlignerRight
R_Toe1_02 R_Toe1_01
R_Toe1_03 R_Toe1_02
R_Toe2_02 R_Toe2_01
R_Toe2_03 R_Toe2_02
R_Toe3_02 R_Toe3_01
R_Toe3_03 R_Toe3_02
Rear_Leg02 Rear_Leg01
Rear_Leg03 Rear_Leg02
Rear_Leg04 Rear_Leg03
Rear_Foot Rear_Leg04
planeAlignerCenter Rear_Foot
Rear_Toe1_01 Rear_Foot
Rear_Toe2_01 Rear_Foot
Rear_Toe3_01 Rear_Foot
planeLockWeightCenter planeAlignerCenter
Rear_Toe1_02 Rear_Toe1_01
Rear_Toe1_03 Rear_Toe1_02
Rear_Toe2_02 Rear_Toe2_01
Rear_Toe2_03 Rear_Toe2_02
Rear_Toe3_02 Rear_Toe3_01
Rear_Toe3_03 Rear_Toe3_02
Back_Bone Spine1
Head Spine1
Motor_Bone Back_Bone
Ping_Mechanism Back_Bone
BN_LookIK Head
bottomMouth Head
L_Mouth01 Head
L_mouthFront Head
mouthGun Head
R_Mouth01 Head
R_mouthFront Head
TopMouth Head
weapon_bone Head
[BasePosition]
#SegmentName Tx, Ty, Tz, Rx, Ry, Rz, BoneLength
Pinger_Root 0.000000 0.000000 0.000000 -90.000000 0.000000 0.000000 10.000000 
Pelvis 0.000000 0.000000 0.000000 0.000000 0.000000 0.000000 10.000000 
L_Hip 0.000000 0.000000 0.000000 0.000000 0.000000 0.000000 10.000000 
R_Hip 0.000000 0.000000 0.000000 0.000000 0.000000 0.000000 10.000000 
Rear_Leg01 0.000000 0.000000 0.000000 0.000000 0.000000 0.000000 10.000000 
Spine1 0.000000 0.000000 0.000000 0.000000 0.000000 0.000000 10.000000 
L_Leg01 0.000000 0.000000 0.000000 0.000000 0.000000 0.000000 10.000000 
L_Leg02 0.000000 0.000000 0.000000 0.000000 0.000000 0.000000 10.000000 
L_Leg03 0.000000 0.000000 0.000000 0.000000 0.000000 0.000000 10.000000 
L_Foot 0.000000 0.000000 0.000000 0.000000 0.000000 0.000000 10.000000 
L_Toe1_01 0.000000 0.000000 0.000000 0.000000 0.000000 0.000000 10.000000 
L_Toe2_01 0.000000 0.000000 0.000000 0.000000 0.000000 0.000000 10.000000 
L_Toe3_01 0.000000 0.000000 0.000000 0.000000 0.000000 0.000000 10.000000 
planeAlignerLeft 0.000000 0.000000 0.000000 0.000000 0.000000 0.000000 10.000000 
L_Toe1_02 0.000000 0.000000 0.000000 0.000000 0.000000 0.000000 10.000000 
L_Toe1_03 0.000000 0.000000 0.000000 0.000000 0.000000 0.000000 10.000000 
L_Toe2_02 0.000000 0.000000 0.000000 0.000000 0.000000 0.000000 10.000000 
L_Toe2_03 0.000000 0.000000 0.000000 0.000000 0.000000 0.000000 10.000000 
L_Toe3_02 0.000000 0.000000 0.000000 0.000000 0.000000 0.000000 10.000000 
L_Toe3_03 0.000000 0.000000 0.000000 0.000000 0.000000 0.000000 10.000000 
planeLockWeightLeft 0.000000 0.000000 0.000000 0.000000 0.000000 0.000000 10.000000 
R_Leg01 0.000000 0.000000 0.000000 0.000000 0.000000 0.000000 10.000000 
R_Leg02 0.000000 0.000000 0.000000 0.000000 0.000000 0.000000 10.000000 
R_Leg03 0.000000 0.000000 0.000000 0.000000 0.000000 0.000000 10.000000 
R_Foot 0.000000 0.000000 0.000000 0.000000 0.000000 0.000000 10.000000 
planeAlignerRight 0.000000 0.000000 0.000000 0.000000 0.000000 0.000000 10.000000 
R_Toe1_01 0.000000 0.000000 0.000000 0.000000 0.000000 0.000000 10.000000 
R_Toe2_01 0.000000 0.000000 0.000000 0.000000 0.000000 0.000000 10.000000 
R_Toe3_01 0.000000 0.000000 0.000000 0.000000 0.000000 0.000000 10.000000 
planeLockWeightRight 0.000000 0.000000 0.000000 0.000000 0.000000 0.000000 10.000000 
R_Toe1_02 0.000000 0.000000 0.000000 0.000000 0.000000 0.000000 10.000000 
R_Toe1_03 0.000000 0.000000 0.000000 0.000000 0.000000 0.000000 10.000000 
R_Toe2_02 0.000000 0.000000 0.000000 0.000000 0.000000 0.000000 10.000000 
R_Toe2_03 0.000000 0.000000 0.000000 0.000000 0.000000 0.000000 10.000000 
R_Toe3_02 0.000000 0.000000 0.000000 0.000000 0.000000 0.000000 10.000000 
R_Toe3_03 0.000000 0.000000 0.000000 0.000000 0.000000 0.000000 10.000000 
Rear_Leg02 0.000000 0.000000 0.000000 0.000000 0.000000 0.000000 10.000000 
Rear_Leg03 0.000000 0.000000 0.000000 0.000000 0.000000 0.000000 10.000000 
Rear_Leg04 0.000000 0.000000 0.000000 0.000000 0.000000 0.000000 10.000000 
Rear_Foot 0.000000 0.000000 0.000000 0.000000 0.000000 0.000000 10.000000 
planeAlignerCenter 0.000000 0.000000 0.000000 0.000000 0.000000 0.000000 10.000000 
Rear_Toe1_01 0.000000 0.000000 0.000000 0.000000 0.000000 0.000000 10.000000 
Rear_Toe2_01 0.000000 0.000000 0.000000 0.000000 0.000000 0.000000 10.000000 
Rear_Toe3_01 0.000000 0.000000 0.000000 0.000000 0.000000 0.000000 10.000000 
planeLockWeightCenter 0.000000 0.000000 0.000000 0.000000 0.000000 0.000000 10.000000 
Rear_Toe1_02 0.000000 0.000000 0.000000 0.000000 0.000000 0.000000 10.000000 
Rear_Toe1_03 0.000000 0.000000 0.000000 0.000000 0.000000 0.000000 10.000000 
Rear_Toe2_02 0.000000 0.000000 0.000000 0.000000 0.000000 0.000000 10.000000 
Rear_Toe2_03 0.000000 0.000000 0.000000 0.000000 0.000000 0.000000 10.000000 
Rear_Toe3_02 0.000000 0.000000 0.000000 0.000000 0.000000 0.000000 10.000000 
Rear_Toe3_03 0.000000 0.000000 0.000000 0.000000 0.000000 0.000000 10.000000 
Back_Bone 0.000000 0.000000 0.000000 0.000000 0.000000 0.000000 10.000000 
Head 0.000000 0.000000 0.000000 0.000000 0.000000 0.000000 10.000000 
Motor_Bone 0.000000 0.000000 0.000000 0.000000 0.000000 0.000000 10.000000 
Ping_Mechanism 0.000000 0.000000 0.000000 0.000000 0.000000 0.000000 10.000000 
BN_LookIK 0.000000 0.000000 0.000000 0.000000 0.000000 0.000000 10.000000 
bottomMouth 0.000000 0.000000 0.000000 0.000000 0.000000 0.000000 10.000000 
L_Mouth01 0.000000 0.000000 0.000000 0.000000 0.000000 0.000000 10.000000 
L_mouthFront 0.000000 0.000000 0.000000 0.000000 0.000000 0.000000 10.000000 
mouthGun 0.000000 0.000000 0.000000 0.000000 0.000000 0.000000 10.000000 
R_Mouth01 0.000000 0.000000 0.000000 0.000000 0.000000 0.000000 10.000000 
R_mouthFront 0.000000 0.000000 0.000000 0.000000 0.000000 0.000000 10.000000 
TopMouth 0.000000 0.000000 0.000000 0.000000 0.000000 0.000000 10.000000 
weapon_bone 0.000000 0.000000 0.000000 0.000000 0.000000 0.000000 10.000000 
#Beginning of Data. Separated by tabs
#Fr	Tx	Ty	Tz	Rx	Ry	Rz	SF
[Pinger_Root]
395 0.000000 -4373.522461 0.000000 -0.000075 -0.000000 -0.000020 4373.521973
396 0.000000 -4386.747559 0.000000 -0.000075 -0.000000 -0.000020 4386.747559
397 0.000000 -4399.972168 0.000000 -0.000075 -0.000000 -0.000020 4399.971680
[Pelvis]
395 1422.326660 19611.679688 7058.917480 179.936356 -86.218094 167.209488 20891.847656
396 1423.283081 19624.888672 7058.947754 -179.880707 -86.236519 167.025726 20904.324219
397 1424.239502 19638.097656 7058.977539 -179.695984 -86.254715 166.840118 20916.798828
[L_Hip]
395 5.766392 125.831482 872.656799 160.158691 -45.484905 122.312202 881.701050
396 5.766392 125.831482 872.656799 160.158691 -45.484905 122.312202 881.701050
397 5.766392 125.831482 872.656799 160.158691 -45.484905 122.312202 881.701050
[R_Hip]
395 5.765438 125.836372 -872.654907 38.087841 49.812687 125.703735 881.699829
396 5.765438 125.836372 -872.654907 38.087841 49.812687 125.703735 881.699829
397 5.765438 125.836372 -872.654907 38.087841 49.812687 125.703735 881.699829
[Rear_Leg01]
395 -192.298416 -925.602966 -0.001907 169.549393 1.658107 -159.421570 945.367432
396 -192.298416 -925.602966 -0.001907 169.552551 1.664831 -159.430832 945.367432
397 -192.298416 -925.602966 -0.001907 169.555695 1.671555 -159.440079 945.367432
[Spine1]
395 290.604584 5.007505 0.000477 7.440948 -0.082750 19.513805 290.647736
396 290.604584 5.007505 0.000477 7.438187 -0.091952 19.507961 290.647736
397 290.604584 5.007505 0.000477 7.432826 -0.107096 19.498062 290.647736
[L_Leg01]
395 761.932007 -0.002384 -0.069261 23.523205 -15.124203 -9.381933 761.932068
396 761.932007 -0.002384 -0.069261 23.512434 -15.126354 -9.394323 761.932068
397 761.932007 -0.002384 -0.069261 23.501652 -15.128504 -9.406711 761.932068
[L_Leg02]
395 1441.140503 -0.000954 -0.000715 2.593160 -0.178521 -128.563293 1441.140503
396 1441.140503 -0.000954 -0.000715 2.590475 -0.178514 -128.540863 1441.140503
397 1441.140503 -0.000954 -0.000715 2.587790 -0.178505 -128.518448 1441.140503
[L_Leg03]
395 1686.963989 -0.000715 -0.000954 -0.029910 0.014790 118.408485 1686.963989
396 1686.963989 -0.000715 -0.000954 -0.029910 0.014788 118.403847 1686.963989
397 1686.963989 -0.000715 -0.000954 -0.029911 0.014787 118.399200 1686.963989
[L_Foot]
395 3041.570068 -30.715107 11.297464 1.785700 13.099570 55.271118 3041.746094
396 3041.570068 -30.715107 11.297464 1.782293 13.100033 55.267986 3041.746094
397 3041.570068 -30.715107 11.297464 1.778888 13.100494 55.264862 3041.746094
[L_Toe1_01]
395 -188.216690 -224.732346 -21.137953 93.700531 -7.723280 -172.145493 293.899567
396 -188.216690 -224.732346 -21.137953 93.700508 -7.720361 -172.145218 293.899567
397 -188.216690 -224.732346 -21.137953 93.700470 -7.717439 -172.144928 293.899567
[L_Toe2_01]
395 200.746536 -219.926590 148.838394 -89.935928 -27.708473 -51.941494 332.896027
396 200.746536 -219.926590 148.838394 -89.936752 -27.694393 -51.948814 332.896027
397 200.746536 -219.926590 148.838394 -89.937576 -27.680313 -51.956127 332.896027
[L_Toe3_01]
395 188.832520 -219.859131 -191.078659 -99.203667 13.269419 -66.060188 347.140900
396 188.832520 -219.859131 -191.078659 -99.209412 13.275431 -66.076988 347.140900
397 188.832520 -219.859131 -191.078659 -99.215149 13.281442 -66.093765 347.140900
[planeAlignerLeft]
395 0.812531 -811.448792 -0.314951 0.000000 -90.000000 -90.001900 811.449280
396 0.812531 -811.448792 -0.314951 0.000000 -90.000000 -90.001900 811.449280
397 0.812531 -811.448792 -0.314951 0.000000 -90.000000 -90.001900 811.449280
[L_Toe1_02]
395 413.761139 0.000477 0.000000 0.001384 -25.944340 0.001384 413.761139
396 413.761139 0.000477 0.000000 0.001384 -25.944286 0.001384 413.761139
397 413.761139 0.000477 0.000000 0.001384 -25.944237 0.001384 413.761139
[L_Toe1_03]
395 464.317322 0.000358 -0.000089 0.003525 51.106754 0.003525 464.317322
396 464.317322 0.000358 -0.000089 0.003527 51.130798 0.003527 464.317322
397 464.317322 0.000358 -0.000089 0.003529 51.154819 0.003529 464.317322
[L_Toe2_02]
395 342.235809 -0.000477 0.000238 0.001187 -72.881149 0.001187 342.235809
396 342.235809 -0.000477 0.000238 0.001187 -72.877083 0.001187 342.235809
397 342.235809 -0.000477 0.000238 0.001187 -72.873055 0.001187 342.235809
[L_Toe2_03]
395 420.210846 -0.000715 0.000000 -0.019958 86.729057 -0.016567 420.210846
396 420.210846 -0.000715 0.000000 -0.019243 86.715683 -0.015887 420.210846
397 420.210846 -0.000715 0.000000 -0.018533 86.702179 -0.015214 420.210846
[L_Toe3_02]
395 329.270111 0.000954 0.000000 0.001177 -81.373741 0.001177 329.270111
396 329.270111 0.000954 0.000000 0.001177 -81.373055 0.001177 329.270111
397 329.270111 0.000954 0.000000 0.001177 -81.372337 0.001177 329.270111
[L_Toe3_03]
395 439.137451 -0.001907 0.000954 -179.997452 74.692833 -179.993927 439.137451
396 439.137451 -0.001907 0.000954 -179.997437 74.741753 -179.993912 439.137451
397 439.137451 -0.001907 0.000954 -179.997421 74.790665 -179.993896 439.137451
[planeLockWeightLeft]
395 -0.000954 0.000238 -0.000305 -0.011826 -0.004376 0.005620 0.001029
396 -0.000954 0.000238 -0.000305 -0.011826 -0.004376 0.005620 0.001029
397 -0.000954 0.000238 -0.000305 -0.011826 -0.004376 0.005620 0.001029
[R_Leg01]
395 761.455627 -0.001907 -0.000358 122.810341 -14.287944 32.049606 761.455688
396 761.455627 -0.001907 -0.000358 122.815125 -14.326136 32.014385 761.455688
397 761.455627 -0.001907 -0.000358 122.819916 -14.364326 31.979155 761.455688
[R_Leg02]
395 1441.140625 0.000000 -0.000238 -0.587743 -0.078268 -125.739288 1441.140625
396 1441.140625 0.000000 -0.000238 -0.588354 -0.078547 -125.794968 1441.140625
397 1441.140625 0.000000 -0.000238 -0.589118 -0.078969 -125.858902 1441.140625
[R_Leg03]
395 1686.963989 0.000954 0.001431 0.061896 -0.031804 127.050087 1686.963989
396 1686.963989 0.000954 0.001431 0.061896 -0.031805 127.052841 1686.963989
397 1686.963989 0.000954 0.001431 0.061895 -0.031807 127.055603 1686.963989
[R_Foot]
395 3041.560059 -30.531288 -11.204481 -0.267196 -23.014910 59.214401 3041.734131
396 3041.560059 -30.531288 -11.204481 -0.274078 -23.014984 59.236755 3041.734131
397 3041.560059 -30.531288 -11.204481 -0.280961 -23.015051 59.259117 3041.734131
[planeAlignerRight]
395 -0.635147 -812.270569 -0.364304 0.000000 -89.960434 -90.005180 812.270874
396 -0.635147 -812.270569 -0.364304 0.000000 -89.960434 -90.005180 812.270874
397 -0.635147 -812.270569 -0.364304 0.000000 -89.960434 -90.005180 812.270874
[R_Toe1_01]
395 -188.383347 -224.864899 21.052242 76.758987 -0.164177 -174.483322 294.101532
396 -188.383347 -224.864899 21.052242 76.758850 -0.161571 -174.501801 294.101532
397 -188.383347 -224.864899 21.052242 76.758736 -0.158966 -174.520264 294.101532
[R_Toe2_01]
395 200.637817 -220.002121 -148.787384 -91.321907 33.694592 -57.947502 332.857574
396 200.637817 -220.002121 -148.787384 -91.317253 33.703358 -57.934124 332.857574
397 200.637817 -220.002121 -148.787384 -91.312592 33.712120 -57.920742 332.857574
[R_Toe3_01]
395 188.606735 -220.092957 191.126343 -73.392006 -8.449878 -72.161324 347.192566
396 188.606735 -220.092957 191.126343 -73.393829 -8.449820 -72.144157 347.192566
397 188.606735 -220.092957 191.126343 -73.395630 -8.449755 -72.127007 347.192566
[planeLockWeightRight]
395 -0.000477 0.000000 0.000000 -0.011823 -0.004379 -0.000027 0.000477
396 -0.000477 0.000000 0.000000 -0.011823 -0.004379 -0.000027 0.000477
397 -0.000477 0.000000 0.000000 -0.011823 -0.004379 -0.000027 0.000477
[R_Toe1_02]
395 413.762085 0.000477 -0.000119 0.001396 -24.461884 0.001396 413.762085
396 413.762085 0.000477 -0.000119 0.001396 -24.459866 0.001396 413.762085
397 413.762085 0.000477 -0.000119 0.001396 -24.457848 0.001396 413.762085
[R_Toe1_03]
395 464.317810 0.000000 0.001088 0.007227 71.307198 0.007227 464.317810
396 464.317810 0.000000 0.001088 0.007234 71.325340 0.007234 464.317810
397 464.317810 0.000000 0.001088 0.007240 71.343414 0.007240 464.317810
[R_Toe2_02]
395 342.234741 -0.000954 0.000238 0.001196 -67.695358 0.001196 342.234741
396 342.234741 -0.000954 0.000238 0.001196 -67.699615 0.001196 342.234741
397 342.234741 -0.000954 0.000238 0.001196 -67.703865 0.001196 342.234741
[R_Toe2_03]
395 420.210846 0.000715 -0.000268 0.008799 74.670456 0.008799 420.210846
396 420.210846 0.000715 -0.000268 0.008806 74.681740 0.008806 420.210846
397 420.210846 0.000715 -0.000268 0.008812 74.692932 0.008812 420.210846
[R_Toe3_02]
395 329.270355 -0.000477 -0.000954 0.001183 -75.820282 0.001183 329.270355
396 329.270355 -0.000477 -0.000954 0.001183 -75.834137 0.001183 329.270355
397 329.270355 -0.000477 -0.000954 0.001183 -75.847939 0.001183 329.270355
[R_Toe3_03]
395 439.137939 0.000238 0.001431 -0.021694 86.697433 -0.018196 439.137939
396 439.137939 0.000238 0.001431 -0.021785 86.712463 -0.018287 439.137939
397 439.137939 0.000238 0.001431 -0.021876 86.727386 -0.018378 439.137939
[Rear_Leg02]
395 1162.777710 -0.029802 0.005960 1.169390 -5.924333 -123.458878 1162.777710
396 1162.777710 -0.029802 0.005960 1.168812 -5.924476 -123.453209 1162.777710
397 1162.777710 -0.029802 0.005960 1.168234 -5.924621 -123.447556 1162.777710
[Rear_Leg03]
395 607.192505 -0.013351 -0.073195 0.006475 -0.002109 64.299011 607.192505
396 607.192505 -0.013351 -0.073195 0.006475 -0.002109 64.298279 607.192505
397 607.192505 -0.013351 -0.073195 0.006475 -0.002109 64.297546 607.192505
[Rear_Leg04]
395 995.874512 -0.020504 -0.011921 -0.040532 -0.015123 58.349926 995.874573
396 995.874512 -0.020504 -0.011921 -0.040531 -0.015124 58.347137 995.874573
397 995.874512 -0.020504 -0.011921 -0.040531 -0.015125 58.344372 995.874573
[Rear_Foot]
395 3096.176270 -0.067472 -0.041425 -134.706146 82.958893 58.067482 3096.176270
396 3096.176270 -0.067472 -0.041425 -134.747513 82.953629 58.024883 3096.176270
397 3096.176270 -0.067472 -0.041425 -134.788742 82.948372 57.982365 3096.176270
[planeAlignerCenter]
395 0.350077 0.966311 -838.790894 0.000009 0.000003 -179.999985 838.791565
396 0.350077 0.966311 -838.790894 0.000009 0.000003 -179.999985 838.791565
397 0.350077 0.966311 -838.790894 0.000009 0.000003 -179.999985 838.791565
[Rear_Toe1_01]
395 0.653352 83.966492 -371.173737 0.288405 41.618687 90.410004 380.553192
396 0.653352 83.966492 -371.173737 0.288406 41.616379 90.409981 380.553192
397 0.653352 83.966492 -371.173737 0.288409 41.614067 90.409950 380.553192
[Rear_Toe2_01]
395 178.200760 -294.826019 -362.060547 -7.219338 34.222153 -66.257866 499.765686
396 178.200760 -294.826019 -362.060547 -7.219502 34.220848 -66.257774 499.765686
397 178.200760 -294.826019 -362.060547 -7.219664 34.219536 -66.257690 499.765686
[Rear_Toe3_01]
395 -153.359680 -308.780914 -362.060852 3.296742 33.343414 -112.556076 499.952881
396 -153.359680 -308.780914 -362.060852 3.296798 33.342049 -112.556190 499.952881
397 -153.359680 -308.780914 -362.060852 3.296854 33.340679 -112.556320 499.952881
[planeLockWeightCenter]
395 -0.000062 0.000238 0.000000 -0.011814 -0.004373 -0.000015 0.000246
396 -0.000062 0.000238 0.000000 -0.011814 -0.004373 -0.000015 0.000246
397 -0.000062 0.000238 0.000000 -0.011814 -0.004373 -0.000015 0.000246
[Rear_Toe1_02]
395 379.707825 0.194073 0.000477 -0.000245 -31.725956 0.006936 379.707855
396 379.707825 0.194073 0.000477 -0.000246 -31.726223 0.006936 379.707855
397 379.707825 0.194073 0.000477 -0.000246 -31.726501 0.006936 379.707855
[Rear_Toe1_03]
395 500.129700 0.165701 0.000119 -0.000039 52.519791 0.007345 500.129761
396 500.129700 0.165701 0.000119 -0.000039 52.525082 0.007346 500.129761
397 500.129700 0.165701 0.000119 -0.000038 52.530373 0.007346 500.129761
[Rear_Toe2_02]
395 340.494507 0.000238 -0.000954 0.001192 -70.105591 0.001192 340.494507
396 340.494507 0.000238 -0.000954 0.001192 -70.105728 0.001192 340.494507
397 340.494507 0.000238 -0.000954 0.001192 -70.105865 0.001192 340.494507
[Rear_Toe2_03]
395 433.103577 0.000000 0.000238 0.006824 70.194519 0.006824 433.103546
396 433.103577 0.000000 0.000238 0.006825 70.197517 0.006825 433.103546
397 433.103577 0.000000 0.000238 0.006826 70.200516 0.006826 433.103546
[Rear_Toe3_02]
395 340.494141 -0.000358 -0.000477 0.008384 -67.519966 -0.009556 340.494171
396 340.494141 -0.000358 -0.000477 0.008384 -67.521561 -0.009556 340.494171
397 340.494141 -0.000358 -0.000477 0.008385 -67.523155 -0.009557 340.494171
[Rear_Toe3_03]
395 433.103577 0.001431 -0.000238 -0.001019 66.355537 -0.004592 433.103546
396 433.103577 0.001431 -0.000238 -0.001019 66.358612 -0.004592 433.103546
397 433.103577 0.001431 -0.000238 -0.001020 66.361717 -0.004592 433.103546
[Back_Bone]
395 1312.175781 -701.934692 0.000954 2.767898 -1.433067 -85.680695 1488.125488
396 1312.175781 -701.934692 0.000954 2.767719 -1.432873 -85.680679 1488.125488
397 1312.175781 -701.934692 0.000954 2.767538 -1.432680 -85.680656 1488.125488
[Head]
395 1406.159424 809.709290 0.001431 -1.610374 2.665148 7.767508 1622.625488
396 1406.159424 809.709290 0.001431 -1.610257 2.664913 7.767516 1622.625488
397 1406.159424 809.709290 0.001431 -1.610140 2.664676 7.767520 1622.625488
[Motor_Bone]
395 1158.364380 -417.834747 0.000477 2.887622 -1.273176 -114.117538 1231.419434
396 1158.364380 -417.834747 0.000477 2.913131 -1.273827 -114.207878 1231.419434
397 1158.364380 -417.834747 0.000477 2.929749 -1.274955 -114.272636 1231.419434
[Ping_Mechanism]
395 1232.856445 -441.464600 -3.610607 0.000103 -0.000053 82.120995 1309.518555
396 1232.888428 -441.476837 -3.540416 0.000103 -0.000053 82.120995 1309.552734
397 1232.920654 -441.489105 -3.470227 0.000103 -0.000053 82.120995 1309.586914
[BN_LookIK]
395 193.241119 1380.371704 -0.002861 0.000000 89.965736 -31.038179 1393.832153
396 193.241119 1380.371704 -0.002861 0.000000 89.965736 -31.038179 1393.832153
397 193.241119 1380.371704 -0.002861 0.000000 89.965736 -31.038179 1393.832153
[bottomMouth]
395 -435.092926 615.759399 -0.000954 -0.000022 0.000016 73.527184 753.966492
396 -435.092926 615.759399 -0.000954 -0.000022 0.000016 73.527184 753.966492
397 -435.092926 615.759399 -0.000954 -0.000022 0.000016 73.527184 753.966492
[L_Mouth01]
395 554.440979 7.658243 838.222046 150.204178 23.759130 109.605339 1005.027161
396 554.440979 7.658243 838.222046 150.204178 23.759130 109.605339 1005.027161
397 554.440979 7.658243 838.222046 150.204178 23.759130 109.605339 1005.027161
[L_mouthFront]
395 551.629089 934.514771 339.150421 0.000081 2.804060 79.119301 1136.941284
396 551.629089 934.514771 339.150421 0.000081 2.804060 79.119301 1136.941284
397 551.629089 934.514771 339.150421 0.000081 2.804060 79.119301 1136.941284
[mouthGun]
395 55.332661 1627.420898 0.000000 0.000023 0.000009 -11.038128 1628.361328
396 55.332661 1627.420898 0.000000 0.000023 0.000009 -11.038128 1628.361328
397 55.332661 1627.420898 0.000000 0.000023 0.000009 -11.038128 1628.361328
[R_Mouth01]
395 554.442383 7.659197 -838.223938 29.795891 -23.759109 109.605331 1005.029541
396 554.442383 7.659197 -838.223938 29.795891 -23.759109 109.605331 1005.029541
397 554.442383 7.659197 -838.223938 29.795891 -23.759109 109.605331 1005.029541
[R_mouthFront]
395 551.629089 934.514282 -339.151367 0.000029 -2.803930 79.119133 1136.941162
396 551.629089 934.514282 -339.151367 0.000029 -2.803930 79.119133 1136.941162
397 551.629089 934.514282 -339.151367 0.000029 -2.803930 79.119133 1136.941162
[TopMouth]
395 461.269867 -56.106091 -0.008583 -0.000059 -0.000268 92.025169 464.669525
396 461.269867 -56.106091 -0.008583 -0.000059 -0.000268 92.025169 464.669525
397 461.269867 -56.106091 -0.008583 -0.000059 -0.000268 92.025169 464.669525
[weapon_bone]
395 -987.239868 1448.372803 0.001431 0.000000 89.965736 -31.038221 1752.833740
396 -987.239868 1448.372803 0.001431 0.000000 89.965736 -31.038221 1752.833740
397 -987.239868 1448.372803 0.001431 0.000000 89.965736 -31.038221 1752.833740
